<?xml version="1.0" encoding="utf-8"?>
<svg version="1.0" xmlns="http://www.w3.org/2000/svg" viewBox="0 0 20 20">
	<path fill="#fff" stroke="none" fill-rule="evenodd"
		d="m 17.987,13.150 -1.282,2.220 c -0.276,0.478 -0.841,0.555 -1.350,0.346 C 14.662,15.432 13.920,15.434 13.303,15.791 12.692,16.138 12.322,16.770 12.222,17.504 12.147,18.049 11.798,18.5 11.246,18.5 H 8.735 C 8.1827,18.5 7.835,18.049 7.760,17.504 7.660,16.774 7.289,16.145 6.684,15.791 6.065,15.425 5.316,15.425 4.621,15.714 4.113,15.925 3.549,15.848 3.274,15.370 L 1.998,13.151 C 1.723,12.673 1.935,12.136 2.367,11.795 2.953,11.333 3.317,10.695 3.317,9.991 3.308,9.286 2.950,8.655 2.370,8.200 1.937,7.860 1.723,7.328 1.999,6.849 L 3.265,4.650 C 3.541,4.171 4.107,4.092 4.617,4.299 5.312,4.583 6.062,4.585 6.687,4.232 7.294,3.875 7.664,3.236 7.762,2.495 7.834,1.950 8.182,1.5 8.735,1.5 h 2.528 c 0.552,0 0.905,0.450 0.978,0.996 0.098,0.736 0.462,1.367 1.072,1.723 0.622,0.355 1.364,0.359 2.055,0.083 0.510,-0.203 1.079,-0.121 1.355,0.356 l 1.262,2.187 C 18.263,7.326 18.048,7.856 17.614,8.194 17.025,8.653 16.663,9.294 16.67,10.009 c 0.001,0.704 0.363,1.336 0.947,1.792 0.433,0.338 0.646,0.871 0.370,1.349 z M 13.3,10 c 0,-4.4 -6.6,-4.4 -6.6,0 0,4.4 6.6,4.4 6.6,0">
	</path>
</svg>
